<?xml version="1.0" encoding="UTF-8"?>
<svg width="24" height="24" version="1.1" viewBox="2 2 20 20" xmlns="http://www.w3.org/2000/svg"><path class="c" d="m13.66 2.142c4.731 0.7923 8.337 4.904 8.337 9.859 0 1.232-0.2243 2.411-0.6304 3.499zm-3.32 0c-4.734 0.7894-8.343 4.901-8.343 9.859 0 1.232 0.2243 2.414 0.6333 3.504l7.707-13.36zm-4.228 15.95c-0.6077 0-0.9854-0.656-0.6844-1.181l5.887-10.2c0.3038-0.5253 1.062-0.5253 1.366 0l4.092 7.094c0.3038 0.5253-0.07667 1.181-0.6815 1.181h-4.535c-0.6077 0-0.9854-0.6531-0.6844-1.181 0.142-0.2442 0.4004-0.3947 0.6815-0.3947h2.61c0.2499 0 0.4061-0.2726 0.2811-0.4884l-2.164-3.751c-0.1249-0.2158-0.4373-0.2158-0.5651 0l-3.956 6.858c-0.1249 0.2158 0.03124 0.4884 0.2811 0.4884l11.52-0.0057c0.2499 0 0.4061-0.2726 0.2811-0.4884l-7.559-13.11c-0.1249-0.2158-0.4373-0.2158-0.5651 0l-8.252 14.31c1.758 2.871 4.921 4.785 8.533 4.785 3.234 0 6.105-1.536 7.934-3.916z"/></svg>
